<?xml version="1.0" encoding="UTF-8" standalone="no"?><!DOCTYPE svg PUBLIC "-//W3C//DTD SVG 1.1//EN" "http://www.w3.org/Graphics/SVG/1.1/DTD/svg11.dtd"><svg width="100%" height="100%" viewBox="0 0 120 120" version="1.1" xmlns="http://www.w3.org/2000/svg" xmlns:xlink="http://www.w3.org/1999/xlink" xml:space="preserve" xmlns:serif="http://www.serif.com/" style="fill-rule:evenodd;clip-rule:evenodd;stroke-linejoin:round;stroke-miterlimit:2;"><rect id="pfp" x="0" y="0" width="120" height="120" style="fill:#001521;"/><g id="pfp1" serif:id="pfp"><path d="M43.634,40.874l0,14.431l-10.27,5.932l-23.018,0l0,-7.702l24.701,0l0,-10.89l-14.431,0l-10.27,-5.932l0,-13.811l10.27,-5.932l23.018,0l0,7.702l-24.701,0l0,10.27l14.431,0l10.27,5.932Z" style="fill:#fff;fill-rule:nonzero;"/><path d="M42.434,87.46l0,14.431l-9.07,5.932l-23.018,0l0,-7.702l24.701,0l0,-10.89l-14.431,0l-10.27,-5.932l0,-13.811l10.27,-5.932l21.893,0l0,7.702l-23.575,0l0,10.27l14.431,0l9.07,5.932Z" style="fill:#e77500;fill-rule:nonzero;"/><path d="M76.863,87.46l0,14.431l-9.55,5.932l-23.018,0l0,-7.702l24.701,0l0,-10.89l-14.431,0l-10.27,-5.932l0,-13.811l10.27,-5.932l22.133,0l0,7.702l-23.815,0l0,10.27l14.431,0l9.55,5.932Z" style="fill:#e77500;fill-rule:nonzero;"/><path d="M45.533,24.603l0,-7.702l9.231,0.07l0,-7.437l9.741,-4.958l0,12.395l15.767,0l-2.674,7.702l-13.093,0l0,28.862l12.121,0l0,7.702l-10.439,0l-11.423,-5.932l0,-30.632l-9.231,-0.07Z" style="fill:#fff;fill-rule:nonzero;"/><path d="M87.309,43.087l0,6.33l13.757,4.56l0,-10.89l-13.757,-0Zm1.682,13.312l-10.27,-5.212l0,-9.871l10.27,-5.932l12.075,0l0,-10.712l-21.466,-0l2.818,-7.702l16.966,0l10.27,5.932l0,38.777l-2.302,0l-6.286,-3.63l-2.248,3.63l-9.827,-5.28Z" style="fill:#fff;fill-rule:nonzero;"/><path d="M87.454,107.823l-8.733,0l0,-54.318l9.693,5.188l0,14.668l10.426,-4.111l7.732,0l3.081,4.165l0,34.408l-8.944,0l0,-28.621l-12.296,0l-0.96,28.621Z" style="fill:#e87600;fill-rule:nonzero;"/></g></svg>