<?xml version="1.0" encoding="UTF-8" standalone="no"?><!DOCTYPE svg PUBLIC "-//W3C//DTD SVG 1.1//EN" "http://www.w3.org/Graphics/SVG/1.1/DTD/svg11.dtd"><svg width="100%" height="100%" viewBox="0 0 106 30" version="1.1" xmlns="http://www.w3.org/2000/svg" xmlns:xlink="http://www.w3.org/1999/xlink" xml:space="preserve" xmlns:serif="http://www.serif.com/" style="fill-rule:evenodd;clip-rule:evenodd;stroke-linejoin:round;stroke-miterlimit:2;"><path d="M17.406,18.98l0,7.546l-5.37,3.102l-12.036,0l0,-4.028l12.916,0l0,-5.694l-7.546,0l-5.37,-3.102l0,-7.222l5.37,-3.102l12.307,-0l0,4.028l-13.187,0l0,5.37l7.546,0l5.37,3.102Z" style="fill:#fff;fill-rule:nonzero;"/><path d="M69.957,19.084l0,7.636l-4.829,3.139l-12.036,0l0,-4.076l12.916,0l0,-5.762l-7.546,0l-5.37,-3.139l0,-7.308l5.37,-3.139l11.573,0l0,4.076l-12.453,0l0,5.434l7.546,0l4.829,3.139Z" style="fill:#e77500;fill-rule:nonzero;"/><path d="M87.709,19.084l0,7.636l-4.829,3.139l-12.036,0l0,-4.076l12.916,0l0,-5.762l-7.546,0l-5.37,-3.139l0,-7.308l5.37,-3.139l11.573,0l0,4.076l-12.453,0l0,5.434l7.546,0l4.829,3.139Z" style="fill:#e77500;fill-rule:nonzero;"/><path d="M18.69,10.472l0,-4.028l4.537,0.036l0,-3.889l5.094,-2.592l0,6.481l8.245,0l-1.398,4.028l-6.846,0l0,15.092l6.338,0l0,4.028l-5.458,0l-5.973,-3.102l0,-16.018l-4.537,-0.036Z" style="fill:#fff;fill-rule:nonzero;"/><path d="M40.244,20.138l0,5.694l7.194,0l0,-5.694l-7.194,-0Zm0.88,9.722l-5.37,-3.102l0,-7.546l5.37,-3.102l6.314,0l0,-5.602l-11.224,-0l1.474,-4.028l8.871,0l5.37,3.102l0,20.277l-1.204,0l-3.287,-1.898l-1.176,1.898l-5.139,0Z" style="fill:#fff;fill-rule:nonzero;"/><path d="M93.412,29.859l-4.566,0l0,-26.203l4.566,2.618l0,5.796l5.954,-2.479l4.043,0l1.611,2.508l0,17.76l-4.677,0l0,-14.697l-6.931,0l0,14.697Z" style="fill:#e87600;fill-rule:nonzero;"/></svg>